<?xml version="1.0" encoding="UTF-8"?>
<svg xmlns="http://www.w3.org/2000/svg" viewBox="0 0 220 320" role="img" aria-labelledby="title desc">
  <title id="title">Lebanese Cedar</title>
  <desc id="desc">Transparent cedar tree emblem without background</desc>
  <defs>
    <linearGradient id="cedarFill" x1="0" y1="0" x2="0" y2="1">
      <stop offset="0%" stop-color="#17b95f"/>
      <stop offset="55%" stop-color="#0f9449"/>
      <stop offset="100%" stop-color="#0b7a3c"/>
    </linearGradient>
    <linearGradient id="trunkFill" x1="0" y1="0" x2="0" y2="1">
      <stop offset="0%" stop-color="#845934"/>
      <stop offset="100%" stop-color="#5f3f24"/>
    </linearGradient>
    <filter id="cedarShadow" x="-30%" y="-20%" width="160%" height="170%">
      <feDropShadow dx="0" dy="8" stdDeviation="8" flood-color="#065b2f" flood-opacity="0.35"/>
      <feDropShadow dx="0" dy="2" stdDeviation="2" flood-color="#ffffff" flood-opacity="0.18"/>
    </filter>
  </defs>

  <g filter="url(#cedarShadow)">
    <path fill="url(#cedarFill)" d="
      M110 12
      L93 44 L106 44 L82 78 L96 78 L70 114 L88 114
      L60 152 L83 152 L52 194 L78 194
      L47 232 L90 232 L90 282
      L130 282 L130 232 L173 232
      L142 194 L168 194 L137 152
      L160 152 L132 114 L150 114
      L124 78 L138 78 L114 44 L127 44 Z
    "/>

    <path fill="url(#trunkFill)" d="M98 282 L122 282 L122 308 L98 308 Z"/>

    <path fill="none" stroke="#1fc66a" stroke-opacity="0.55" stroke-width="2" d="
      M110 24 L99 46 L111 46 L89 78 L102 78 L78 112 L94 112
      M110 24 L121 46 L109 46 L131 78 L118 78 L142 112 L126 112
    "/>
  </g>
</svg>
