<?xml version="1.0" encoding="UTF-8"?>
<svg xmlns="http://www.w3.org/2000/svg" viewBox="600 280 620 620" role="img" aria-label="Lebanese cedar">
  <title>Lebanese Cedar</title>

  <path
    fill="#00A651"
    stroke="#007A3D"
    stroke-width="8"
    stroke-linejoin="round"
    d="
      M 851.51 829.61
      C 852.39 829.87 852.89 830.64 854.14 830.57
      C 858.78 830.30 861.78 830.58 865.89 828.10
      A 1.91 1.83 27.1 0 1 866.79 827.83
      Q 873.51 827.50 875.78 827.97
      Q 882.64 829.39 885.36 835.81
      Q 887.61 841.12 887.75 841.35
      C 892.73 849.49 900.48 853.85 908.62 858.95
      C 914.85 862.86 915.61 868.58 923.70 870.70
      A 1.60 1.60 0.0 0 0 924.78 870.59
      Q 928.39 868.86 927.29 863.98
      C 926.42 860.14 928.23 852.83 932.33 850.27
      C 936.98 847.38 954.22 852.07 960.00 853.01
      C 971.12 854.84 978.38 857.86 986.07 865.30
      C 991.36 870.42 1005.81 893.68 1014.57 883.33
      C 1018.70 878.45 1014.95 870.45 1010.19 867.52
      Q 997.95 859.99 993.15 856.09
      C 975.50 841.78 956.79 825.25 949.98 802.74
      Q 947.62 794.97 946.78 783.05
      Q 945.13 759.84 948.94 736.73
      C 950.82 725.34 965.52 718.10 975.76 722.57
      C 993.09 730.13 1007.20 739.72 1027.04 739.48
      C 1060.12 739.09 1094.12 733.09 1123.18 752.81
      C 1140.82 764.77 1151.60 773.39 1167.33 779.35
      C 1172.41 781.27 1177.50 779.12 1179.70 774.26
      C 1182.96 767.03 1179.55 762.53 1173.97 757.50
      Q 1154.77 740.19 1132.07 727.68
      Q 1105.53 713.05 1079.64 697.31
      C 1073.82 693.77 1070.87 688.93 1072.35 682.19
      C 1074.15 674.00 1084.81 670.13 1092.05 669.58
      C 1105.12 668.59 1114.85 677.34 1122.75 681.47
      Q 1132.70 686.69 1143.81 687.62
      C 1154.49 688.51 1155.22 677.26 1149.59 671.54
      Q 1148.17 670.10 1144.31 668.41
      C 1136.83 665.14 1129.02 658.59 1123.15 652.89
      Q 1112.44 642.52 1097.95 629.30
      C 1089.69 621.77 1079.98 614.98 1068.87 613.01
      Q 1058.77 611.22 1048.33 611.49
      A 0.84 0.84 0.0 0 1 1047.54 610.98
      C 1044.85 604.61 1048.50 596.78 1055.74 595.79
      C 1059.84 595.23 1065.80 596.15 1069.33 596.21
      C 1081.72 596.43 1092.50 594.58 1106.42 594.02
      Q 1108.34 593.94 1110.90 594.72
      Q 1119.66 597.37 1125.13 590.13
      C 1126.78 587.94 1126.73 584.43 1125.13 582.42
      C 1120.96 577.20 1109.15 576.05 1103.44 574.40
      C 1086.40 569.48 1069.72 564.33 1052.27 560.97
      C 1039.78 558.57 1044.61 544.29 1055.05 543.61
      Q 1057.49 543.45 1062.71 545.12
      C 1073.60 548.60 1084.92 549.43 1096.21 550.77
      C 1098.79 551.08 1101.25 552.63 1103.51 550.41
      C 1109.17 544.86 1102.70 536.40 1096.85 534.39
      Q 1082.87 529.59 1070.45 521.54
      C 1048.34 507.21 1028.92 490.48 1008.54 473.94
      C 999.72 466.79 995.19 462.87 986.68 459.40
      C 979.70 456.56 970.95 448.74 979.74 441.45
      Q 984.54 437.47 990.96 439.06
      C 999.25 441.11 1009.72 446.30 1017.67 448.49
      Q 1028.83 451.56 1040.00 452.08
      Q 1043.96 452.26 1045.65 448.63
      A 1.22 1.19 48.9 0 0 1045.70 447.72
      Q 1044.85 445.22 1042.33 444.13
      Q 1026.27 437.19 1012.54 426.48
      C 1007.61 422.63 1002.69 419.24 998.42 415.59
      Q 996.64 414.06 996.43 411.50
      Q 996.39 411.00 996.70 410.60
      C 999.25 407.26 1002.24 407.22 1006.01 406.33
      C 1010.27 405.33 1014.75 409.42 1018.32 408.08
      C 1022.84 406.38 1022.07 399.03 1019.76 396.14
      C 1017.03 392.74 1010.67 390.97 1006.93 388.32
      C 987.45 374.47 969.53 361.58 945.18 357.80
      C 908.01 352.02 891.77 329.21 878.94 296.52
      A 0.40 0.40 0.0 0 0 878.22 296.48
      C 863.24 324.91 839.54 342.30 815.24 361.99
      C 812.32 364.36 808.29 368.53 811.93 372.24
      A 0.70 0.70 0.0 0 0 812.79 372.36
      Q 819.00 368.71 825.11 372.88
      C 828.76 375.36 828.93 378.64 825.72 381.72
      Q 821.00 386.26 817.28 388.05
      Q 797.25 397.69 781.31 408.31
      Q 777.98 410.52 773.93 414.67
      A 1.10 1.08 -23.3 0 0 773.62 415.43
      C 773.55 423.50 784.23 421.41 789.36 422.80
      C 794.65 424.25 795.76 430.26 793.49 434.72
      Q 789.96 441.64 781.94 442.47
      A 1.49 1.47 -32.2 0 1 781.03 442.27
      C 775.76 439.14 764.25 448.27 761.21 452.11
      Q 761.01 452.35 756.08 460.57
      Q 748.86 472.60 735.85 478.91
      C 720.09 486.55 706.46 493.22 690.99 504.74
      C 686.93 507.75 684.00 511.04 685.94 516.00
      C 694.12 536.93 727.06 499.11 740.07 522.06
      C 747.38 534.95 740.79 545.94 731.91 556.22
      Q 719.37 570.72 700.92 576.56
      C 686.08 581.26 678.78 585.92 667.54 597.77
      Q 655.77 610.17 642.50 620.99
      C 641.22 622.03 640.04 623.87 640.41 625.33
      C 643.59 637.90 655.94 637.64 665.51 633.00
      Q 673.74 629.02 683.19 622.24
      C 687.62 619.07 694.39 614.31 698.78 615.01
      C 719.74 618.33 717.88 643.06 701.28 650.80
      C 670.12 665.33 643.94 686.10 621.12 711.02
      C 615.44 717.23 607.08 715.97 600.76 721.05
      Q 600.36 721.38 600.23 721.87
      C 596.76 735.78 619.34 731.09 625.26 729.75
      C 653.77 723.26 678.25 710.32 705.34 695.91
      Q 711.56 692.60 715.07 692.03
      C 722.25 690.86 730.51 693.23 734.27 699.89
      C 739.57 709.28 727.58 718.24 720.44 721.95
      C 695.06 735.14 668.37 743.20 641.22 751.75
      C 635.92 753.41 633.09 751.08 629.26 756.95
      C 622.97 766.59 631.69 771.67 640.07 771.95
      C 685.09 773.49 723.40 752.43 763.42 734.83
      Q 782.84 726.28 797.85 736.90
      C 808.85 744.69 814.19 757.72 812.38 771.06
      Q 811.53 777.31 807.03 786.39
      C 796.12 808.39 782.83 827.09 763.24 842.21
      C 752.09 850.81 741.88 853.79 729.89 858.45
      C 720.25 862.19 712.99 866.45 705.27 872.39
      A 1.50 1.44 -15.4 0 0 704.72 873.31
      C 703.93 878.31 709.42 884.22 714.52 881.71
      Q 715.04 881.45 715.26 880.92
      C 719.37 871.00 730.09 866.30 740.70 865.27
      C 756.02 863.79 772.53 861.81 786.26 854.45
      C 802.96 845.49 814.30 827.61 834.12 825.41
      C 839.19 824.85 846.53 828.16 851.51 829.61
      Z"
  />
</svg>