<?xml version="1.0" encoding="UTF-8"?>
<svg xmlns="http://www.w3.org/2000/svg" viewBox="0 0 1161 325" width="1161" height="325" role="img" aria-label="Red lion logo with horizontal divider">
  <title>Red lion logo</title>
  <rect width="1161" height="325" fill="none"/>
  <path d="M88,176 L62,200 L54,210 L50,220 L51,238 L57,250 L73,273 L82,290 L78,272 L62,241 L61,227 L62,226 L63,227 L65,236 L70,246 L80,256 L73,239 L71,223 L74,209 L85,187 Z M189,151 L187,158 L185,160 L182,160 L182,168 L180,170 L167,159 L165,150 L163,165 L159,170 L156,168 L143,171 L134,170 L130,168 L125,168 L122,170 L117,162 L117,169 L119,173 L122,176 L127,178 L128,174 L130,176 L132,182 L137,189 L136,194 L128,200 L116,204 L114,203 L113,200 L119,198 L113,197 L109,193 L110,192 L122,193 L110,189 L106,185 L108,184 L120,188 L124,188 L124,187 L108,181 L106,179 L107,178 L115,181 L117,180 L111,177 L104,169 L98,179 L87,204 L84,217 L85,229 L86,229 L89,213 L91,210 L92,213 L89,223 L89,245 L93,260 L101,274 L97,254 L98,241 L104,224 L108,218 L117,209 L129,203 L149,202 L162,207 L168,214 L167,219 L164,223 L159,218 L157,227 L155,229 L151,223 L141,237 L139,236 L130,223 L126,230 L122,218 L117,223 L114,216 L105,231 L103,239 L103,250 L105,259 L122,295 L126,309 L126,314 L123,324 L129,317 L133,307 L133,292 L121,256 L123,248 L126,263 L136,278 L140,289 L139,308 L146,304 L161,288 L170,271 L177,251 L178,252 L177,266 L173,280 L165,295 L151,311 L153,311 L171,299 L184,285 L191,273 L197,253 L198,232 L194,211 L188,194 L189,191 L207,216 L212,228 L212,242 L207,259 L201,272 L205,271 L224,253 L232,239 L234,232 L234,221 L232,214 L227,205 L198,176 L194,169 Z M167,166 L174,173 L164,181 L175,177 L176,179 L158,188 L167,187 L174,184 L176,185 L174,188 L160,193 L172,191 L173,194 L170,197 L162,198 L169,200 L165,204 L148,197 L145,193 L145,187 L153,175 L154,178 L158,177 Z M80,149 L69,158 L46,168 L40,172 L30,182 L25,191 L21,207 L16,218 L7,227 L20,226 L29,221 L31,227 L31,233 L35,245 L41,255 L51,265 L42,240 L41,233 L42,221 L50,204 L65,188 L75,175 L80,162 Z M89,128 L85,137 L85,148 L89,156 L100,171 L101,166 L95,156 L94,147 L91,146 L88,141 Z M82,124 L53,132 L41,134 L25,142 L18,150 L15,156 L8,184 L0,196 L4,196 L12,193 L19,186 L33,160 L45,147 L54,142 L60,141 L72,136 L79,130 Z M185,116 L170,116 L165,118 L162,123 L163,135 L164,132 L168,128 L177,126 L182,123 Z M96,116 L97,120 L102,125 L115,129 L119,135 L119,122 L115,117 Z M99,89 L87,100 L75,106 L71,107 L37,106 L26,110 L16,120 L13,129 L25,118 L27,119 L5,143 L11,142 L35,128 L50,124 L66,122 L83,116 L93,106 L98,95 Z M190,73 L187,76 L187,80 L189,84 L196,91 L204,95 L204,86 L206,82 L212,78 L221,77 L215,73 L201,73 L200,70 Z M95,74 L83,70 L82,73 L75,72 L68,73 L62,77 L74,79 L79,85 L79,95 L92,87 L96,80 Z M84,61 L73,56 L59,56 L53,59 L47,65 L44,73 L44,85 L47,95 L39,99 L38,101 L66,102 L57,88 L56,74 L58,70 L66,63 L75,61 L84,62 Z M89,26 L93,40 L98,45 L97,46 L86,41 L75,41 L82,46 L68,48 L64,50 L78,54 L94,63 L107,75 L118,91 L141,102 L158,92 L169,89 L177,76 L186,67 L193,63 L199,61 L211,61 L219,65 L225,72 L227,77 L227,87 L225,93 L218,101 L213,103 L207,103 L200,100 L188,90 L183,82 L181,82 L179,87 L179,96 L182,103 L194,120 L193,124 L190,123 L190,128 L196,151 L211,167 L224,177 L236,189 L244,203 L246,210 L246,226 L241,243 L235,256 L237,255 L249,240 L256,226 L259,215 L259,197 L255,187 L248,178 L238,171 L217,160 L207,151 L202,141 L201,128 L203,127 L210,135 L216,139 L240,151 L247,156 L261,171 L267,183 L270,193 L271,189 L270,165 L267,155 L260,142 L262,140 L270,143 L269,133 L266,123 L262,115 L252,104 L244,99 L233,95 L236,74 L239,67 L243,64 L237,59 L241,54 L223,54 L222,53 L227,48 L221,48 L206,51 L197,55 L196,53 L202,46 L208,42 L208,40 L190,42 L189,41 L191,36 L191,23 L184,30 L166,39 L165,36 L169,26 L160,31 L159,30 L159,13 L154,0 L146,8 L128,17 L120,25 L115,37 L113,37 L104,30 Z M200,108 L203,107 L212,110 L228,110 L240,112 L247,115 L257,126 L255,127 L249,124 L239,122 L227,122 L215,120 L207,116 Z M177,44 L178,45 L177,48 L166,57 L158,67 L157,63 L160,57 L165,52 Z M145,34 L146,37 L144,42 L142,61 L138,55 L137,49 L141,38 Z M138,20 L139,21 L131,34 L127,52 L128,65 L132,79 L135,84 L134,86 L130,82 L122,68 L119,58 L119,44 L125,31 L134,22 Z" fill="#ff0000" fill-rule="evenodd"/>
  <rect x="312" y="196" width="840" height="4" rx="2" fill="#1f2226"/>
</svg>
