<?xml version="1.0" encoding="UTF-8" standalone="no"?>
<!-- Filename: e0eee32624c94cb2ba851d5264639bc7e4ffeea5cd822ab1737877d3356b4ef2.svg -->
<!-- Created with https://svgstud.io -->
<svg
  version="1.1"
  xmlns="http://www.w3.org/2000/svg"
  xmlns:xlink="http://www.w3.org/1999/xlink"
  xmlns:svg="http://www.w3.org/2000/svg"
  xmlns:rdf="http://www.w3.org/1999/02/22-rdf-syntax-ns#"
  xmlns:cc="http://creativecommons.org/ns#"
  xmlns:dc="http://purl.org/dc/elements/1.1/"
  viewBox="0 0 768 768"
  width="768"
  height="768"
  role="img"
  aria-labelledby="titleID descID"
>
  <title id="titleID">Prime Minister of Canada, Mark Carney</title>
  <desc id="descID">AI-generated SVG illustration: Prime Minister of Canada, Mark Carney, created on https://svgstud.io</desc>

  <rect width="100%" height="100%" fill="white" />

  <metadata id="copyright">
    Created by https://svgstud.io and licensed under CC-BY-SA 4.0 license. Please attribute https://svgstud.io
  </metadata>
  <metadata id="prompt">
    Prime Minister of Canada, Mark Carney
  </metadata>
  <metadata id="version">
    7
  </metadata>
  <metadata>
    <rdf:RDF
      xmlns:rdf="http://www.w3.org/1999/02/22-rdf-syntax-ns#"
      xmlns:cc="http://creativecommons.org/ns#"
      xmlns:dc="http://purl.org/dc/elements/1.1/"
    >
      <cc:Work rdf:about="">
        <cc:license rdf:resource="http://creativecommons.org/licenses/by-sa/4.0/" />
        <dc:creator>
          <cc:Agent>
            <dc:title>https://svgstud.io</dc:title>
          </cc:Agent>
        </dc:creator>
      </cc:Work>
      <cc:License rdf:about="http://creativecommons.org/licenses/by-sa/4.0/">
        <cc:permits rdf:resource="http://creativecommons.org/ns#Reproduction" />
        <cc:permits rdf:resource="http://creativecommons.org/ns#Distribution" />
        <cc:requires rdf:resource="http://creativecommons.org/ns#Notice" />
        <cc:requires rdf:resource="http://creativecommons.org/ns#Attribution" />
        <cc:permits rdf:resource="http://creativecommons.org/ns#DerivativeWorks" />
        <cc:requires rdf:resource="http://creativecommons.org/ns#ShareAlike" />
      </cc:License>
    </rdf:RDF>
  </metadata>
  <metadata id="uid">e0eee32624c94cb2ba851d5264639bc7e4ffeea5cd822ab1737877d3356b4ef2</metadata>

  <path stroke="none" fill="black" fill-rule="evenodd" d="M226.32,740.86C203.87,740.78 180.81,740.36 175.09,739.92C169.36,739.48 160.13,738.15 154.59,736.96C149.04,735.78 140.90,733.67 136.50,732.28C132.10,730.90 123.10,727.18 116.50,724.02C109.90,720.85 101.14,715.87 97.02,712.95C92.91,710.02 85.55,703.77 80.66,699.06C75.77,694.35 69.19,687.30 66.04,683.38C62.88,679.46 58.15,672.80 55.52,668.58C52.89,664.36 48.97,656.81 46.81,651.81C44.66,646.81 41.61,637.72 40.04,631.61C38.48,625.50 36.51,616.23 35.68,611.00C34.84,605.77 33.90,599.25 33.59,596.50C33.28,593.75 33.40,590.91 33.86,590.20C34.31,589.48 42.38,586.93 51.79,584.53C61.19,582.12 72.85,578.97 77.70,577.52C82.54,576.07 99.55,570.57 115.50,565.30C131.45,560.03 153.05,552.45 163.50,548.44C173.95,544.44 189.59,538.44 198.26,535.10C206.93,531.77 215.27,528.40 216.79,527.61C218.32,526.82 221.60,524.00 224.08,521.34C226.56,518.68 230.44,513.78 232.69,510.47C234.94,507.15 239.07,500.55 241.88,495.81C244.68,491.06 248.87,485.56 251.19,483.57C253.51,481.58 257.12,479.45 259.21,478.82C261.30,478.19 263.27,477.93 263.58,478.24C263.88,478.55 263.63,481.44 263.01,484.65C262.39,487.87 261.62,498.60 261.31,508.50C260.99,518.40 261.26,551.92 261.89,583.00C262.53,614.08 263.51,648.50 264.06,659.50C264.62,670.50 266.18,692.10 267.54,707.50C268.90,722.90 270.19,736.29 270.41,737.26C270.64,738.27 270.03,739.45 268.98,740.01C267.84,740.62 251.54,740.95 226.32,740.86zM371.17,740.58C356.50,740.63 336.18,740.40 326.00,740.08C307.50,739.50 307.50,739.50 307.84,737.00C308.02,735.62 309.95,727.52 312.11,719.00C314.28,710.48 317.89,698.10 320.14,691.50C322.39,684.90 326.18,674.70 328.56,668.84C330.94,662.97 334.68,654.61 336.87,650.25C340.86,642.32 340.86,642.32 337.91,639.37C335.34,636.80 334.72,635.00 333.07,625.17C332.03,618.99 330.64,613.27 329.97,612.46C329.30,611.66 327.43,611.00 325.81,611.00C324.19,611.00 322.04,611.44 321.03,611.98C320.02,612.52 315.11,617.87 310.11,623.87C305.11,629.87 299.35,636.24 297.32,638.02C295.29,639.80 291.80,642.09 289.57,643.11C287.33,644.13 284.04,644.97 282.25,644.98C280.46,644.99 279.00,644.77 279.00,644.48C279.00,644.19 282.97,640.03 287.81,635.23C292.66,630.43 302.68,618.41 310.06,608.52C317.45,598.62 326.43,587.41 330.00,583.60C333.57,579.79 339.76,574.53 343.75,571.92C348.05,569.10 353.10,566.72 356.14,566.06C359.87,565.26 362.93,565.26 367.32,566.06C370.65,566.66 375.65,568.31 378.44,569.71C381.33,571.17 387.19,575.96 392.09,580.88C396.81,585.62 406.90,597.38 414.52,607.00C422.14,616.62 430.65,627.11 433.43,630.30C436.22,633.50 440.90,637.97 443.84,640.25C448.83,644.11 449.06,644.48 447.34,645.76C446.11,646.69 444.19,646.94 441.50,646.52C439.30,646.18 435.64,644.81 433.37,643.47C431.09,642.14 427.10,638.68 424.49,635.78C421.88,632.87 417.04,627.01 413.75,622.75C407.88,615.16 407.66,615.00 403.34,615.00C400.92,615.00 397.39,615.65 395.49,616.44C393.59,617.23 391.18,619.30 390.12,621.04C389.06,622.78 387.01,627.87 385.55,632.35C383.90,637.42 382.00,641.25 380.50,642.50C378.10,644.50 378.10,644.50 383.13,657.00C385.89,663.88 389.43,674.90 391.00,681.50C392.56,688.10 394.53,698.00 395.38,703.50C396.22,709.00 397.47,719.22 398.15,726.22C398.83,733.22 399.04,739.29 398.61,739.72C398.19,740.15 385.83,740.54 371.17,740.58zM514.00,740.83C476.32,740.74 444.26,740.48 442.75,740.26C440.33,739.92 440.07,739.54 440.61,737.18C440.95,735.71 445.87,716.27 451.54,694.00C457.21,671.73 463.42,646.96 465.35,638.97C467.27,630.98 472.44,611.85 476.84,596.47C481.24,581.09 486.21,563.28 487.89,556.91C489.57,550.53 492.32,538.49 494.00,530.14C496.50,517.75 497.07,512.53 497.06,501.73C497.06,491.64 496.58,486.72 495.04,481.00C493.94,476.88 492.49,471.60 491.82,469.28C491.15,466.96 490.89,464.78 491.23,464.44C491.58,464.09 494.58,465.26 497.92,467.04C501.25,468.81 505.91,472.34 508.28,474.88C510.65,477.42 515.91,485.12 519.97,492.00C526.06,502.31 529.14,506.27 537.56,514.63C544.65,521.67 551.70,527.36 560.63,533.27C567.71,537.95 578.45,544.24 584.50,547.26C590.55,550.27 598.65,554.10 602.50,555.76C606.35,557.42 615.12,561.12 622.00,563.99C628.88,566.85 641.25,572.04 649.50,575.51C657.75,578.98 674.85,586.62 687.50,592.50C700.15,598.38 714.43,605.01 719.23,607.24C724.03,609.47 728.20,612.07 728.50,613.01C728.80,613.95 727.50,620.76 725.61,628.14C723.72,635.52 720.50,645.73 718.46,650.82C716.43,655.91 712.37,663.88 709.46,668.52C706.54,673.16 701.47,680.26 698.18,684.28C694.89,688.31 689.49,694.11 686.18,697.17C682.88,700.23 676.19,705.72 671.34,709.36C666.33,713.10 655.99,719.23 647.50,723.48C639.25,727.60 628.61,732.08 623.85,733.43C619.09,734.78 611.87,736.57 607.81,737.41C603.74,738.24 596.39,739.40 591.46,739.97C585.97,740.60 555.99,740.94 514.00,740.83zM565.01,734.00C566.04,733.44 568.88,730.40 571.30,727.24C573.72,724.08 579.14,715.54 583.35,708.25C587.56,700.96 594.46,689.04 598.70,681.75C602.93,674.46 607.69,666.14 609.26,663.26C610.84,660.38 611.89,657.62 611.58,657.13C611.28,656.64 605.96,655.00 599.76,653.49C593.57,651.97 588.15,650.42 587.72,650.04C587.29,649.65 588.85,648.76 591.20,648.06C593.54,647.36 605.36,641.71 617.48,635.51C629.59,629.31 643.89,622.53 649.25,620.45C654.61,618.37 659.00,616.35 659.00,615.96C659.00,615.58 657.09,615.05 654.75,614.79C652.41,614.53 643.98,614.66 636.00,615.09C628.02,615.52 616.67,615.90 610.78,615.94C600.05,616.00 600.05,616.00 598.61,613.21C597.81,611.67 594.46,601.44 591.16,590.46C587.86,579.48 584.16,567.83 582.94,564.56C581.72,561.30 579.62,557.53 578.28,556.19C576.72,554.63 575.50,554.10 574.88,554.72C574.27,555.33 574.69,559.25 576.05,565.59C577.23,571.04 581.68,585.85 585.96,598.50C590.23,611.15 594.80,624.30 596.11,627.73C598.49,633.95 598.49,633.95 596.45,635.99C595.33,637.12 590.02,639.60 584.65,641.52C576.73,644.35 572.10,645.28 560.19,646.43C552.11,647.21 544.71,648.15 543.75,648.53C542.79,648.91 542.00,649.58 542.00,650.03C542.00,650.48 543.46,651.31 545.25,651.88C547.04,652.45 558.17,654.76 570.00,657.00C581.83,659.25 593.64,661.56 596.25,662.14C598.86,662.72 601.00,663.63 601.00,664.16C601.00,664.68 598.58,669.25 595.61,674.31C592.65,679.36 585.85,691.38 580.50,701.00C575.15,710.62 568.77,721.75 566.31,725.71C563.85,729.68 562.13,733.40 562.48,733.97C562.92,734.67 563.73,734.68 565.01,734.00zM345.92,706.00C346.42,706.00 348.15,704.31 349.77,702.25C351.39,700.19 354.81,694.90 357.38,690.50C359.95,686.10 362.94,679.64 364.03,676.14C365.11,672.65 365.98,667.25 365.96,664.14C365.94,661.01 364.95,655.65 363.71,652.08C362.50,648.55 360.68,645.17 359.69,644.58C358.23,643.71 357.51,643.94 356.02,645.76C355.00,647.01 353.67,650.31 353.07,653.10C352.47,655.89 350.41,667.25 348.49,678.33C346.57,689.42 345.00,700.18 345.00,702.24C345.00,704.31 345.41,706.00 345.92,706.00zM145.02,702.00C145.56,702.00 146.00,701.42 146.00,700.70C146.00,699.99 145.11,695.38 144.02,690.45C142.94,685.53 140.22,675.20 137.98,667.50C135.71,659.68 134.05,651.96 134.21,650.00C134.50,646.50 134.50,646.50 140.00,646.66C143.03,646.74 154.32,647.14 165.11,647.54C178.86,648.05 184.92,647.95 185.39,647.19C185.75,646.59 185.24,645.67 184.25,645.13C183.26,644.60 174.36,642.18 164.47,639.74C152.69,636.84 142.20,633.50 134.00,630.04C127.12,627.14 113.25,621.89 103.16,618.38C93.07,614.87 84.41,612.25 83.91,612.55C83.41,612.87 83.64,614.31 84.43,615.81C85.21,617.29 88.24,620.78 91.17,623.57C94.10,626.36 99.25,630.96 102.61,633.80C105.98,636.64 110.70,641.56 113.11,644.73C115.53,647.90 118.51,651.32 119.75,652.32C120.99,653.33 123.15,656.10 124.55,658.50C125.95,660.89 130.22,670.59 134.02,680.06C137.83,689.52 141.64,698.33 142.50,699.63C143.35,700.94 144.49,702.00 145.02,702.00zM539.75,632.97C540.99,632.99 542.00,632.51 542.00,631.91C542.00,631.31 537.68,626.02 532.41,620.16C527.13,614.30 519.59,606.45 515.66,602.73C511.72,599.00 507.31,595.30 505.85,594.50C503.71,593.33 503.00,593.30 502.14,594.33C501.38,595.25 501.59,596.42 502.92,598.55C503.93,600.17 508.97,606.08 514.13,611.68C519.28,617.28 525.75,623.84 528.50,626.27C531.25,628.69 534.40,631.18 535.50,631.80C536.60,632.43 538.51,632.95 539.75,632.97zM148.16,627.00C148.80,627.00 151.16,625.92 153.41,624.60C155.66,623.28 160.65,618.52 164.50,614.02C168.35,609.51 173.44,603.05 175.82,599.66C178.20,596.27 181.74,590.66 183.69,587.20C185.64,583.73 187.05,580.71 186.82,580.49C186.60,580.26 182.16,584.87 176.96,590.73C171.76,596.59 162.89,606.36 157.26,612.44C151.63,618.52 147.02,624.29 147.01,625.25C147.00,626.21 147.52,627.00 148.16,627.00zM359.38,627.00C366.76,627.00 366.76,627.00 366.64,621.75C366.58,618.81 367.50,613.40 368.73,609.46C369.94,605.59 372.82,599.51 375.14,595.96C377.45,592.41 379.29,588.66 379.23,587.64C379.16,586.61 380.00,584.56 381.10,583.08C382.19,581.60 382.81,579.67 382.48,578.80C382.14,577.92 379.90,576.71 377.49,576.10C375.08,575.50 372.30,574.99 371.31,574.99C370.31,574.98 365.45,576.86 360.50,579.17C351.50,583.36 351.50,583.36 351.70,604.93C351.81,616.79 351.92,626.61 351.95,626.75C351.98,626.89 355.32,627.00 359.38,627.00zM368.28,558.89C366.20,558.83 362.59,558.40 360.25,557.94C357.91,557.48 353.78,555.99 351.06,554.62C348.35,553.26 342.61,549.79 338.31,546.91C334.02,544.03 325.54,538.00 319.47,533.50C313.40,529.01 304.25,521.56 299.12,516.95C294.00,512.33 287.08,505.17 283.74,501.03C280.41,496.89 276.83,491.60 275.80,489.28C274.46,486.26 273.78,481.70 273.40,473.28C273.11,466.80 272.69,460.56 272.46,459.42C272.23,458.27 269.07,453.77 265.44,449.42C261.80,445.06 257.08,438.57 254.94,434.99C252.81,431.41 250.15,425.85 249.05,422.64C247.94,419.43 246.35,413.18 245.51,408.75C244.67,404.33 243.52,391.66 242.95,380.60C242.38,369.55 241.24,356.31 240.42,351.18C239.60,346.05 238.50,338.48 237.98,334.35C237.37,329.57 237.38,324.38 237.99,320.04C238.52,316.30 239.45,311.95 240.05,310.38C241.13,307.52 241.13,307.52 243.03,310.01C244.07,311.38 246.40,315.10 248.21,318.29C250.02,321.47 253.44,327.09 255.81,330.79C258.18,334.48 261.99,339.17 264.28,341.22C268.45,344.94 268.45,344.94 262.69,355.89C258.02,364.79 256.83,368.04 256.34,373.26C255.97,377.22 256.20,381.08 256.95,383.34C257.61,385.35 258.53,387.00 258.99,387.00C259.45,387.00 261.45,384.09 263.44,380.54C265.42,376.99 267.44,373.85 267.92,373.55C268.40,373.25 268.99,373.57 269.24,374.26C269.49,374.94 269.29,379.55 268.79,384.50C268.20,390.42 268.27,396.33 268.99,401.78C269.59,406.33 270.95,412.85 272.01,416.28C273.07,419.70 277.38,429.25 281.57,437.50C285.77,445.75 292.09,456.87 295.62,462.20C299.15,467.54 303.98,473.49 306.35,475.43C308.72,477.37 312.65,479.83 315.08,480.89C317.51,481.95 323.10,483.51 327.50,484.35C331.90,485.20 345.62,486.60 358.00,487.47C375.05,488.67 383.20,488.82 391.64,488.08C397.76,487.54 405.44,486.20 408.69,485.10C411.95,484.01 417.52,481.47 421.06,479.48C424.60,477.48 431.32,473.09 436.00,469.73C440.68,466.37 451.16,458.46 459.30,452.15C467.44,445.85 476.16,438.40 478.68,435.59C481.20,432.79 485.05,427.86 487.24,424.64C489.44,421.41 492.51,415.94 494.08,412.48C495.65,409.02 497.96,402.21 499.22,397.34C501.20,389.68 501.54,388.99 501.81,392.17C501.97,394.19 501.21,399.64 500.11,404.27C499.01,408.90 497.03,415.13 495.71,418.10C494.39,421.07 490.71,427.10 487.54,431.50C484.37,435.90 480.23,442.58 478.33,446.34C476.44,450.10 472.43,460.19 469.43,468.75C466.43,477.31 464.22,484.55 464.51,484.84C464.80,485.14 467.08,483.38 469.58,480.94C472.12,478.45 475.73,473.26 477.77,469.13C479.78,465.08 481.59,462.26 481.79,462.86C481.99,463.47 481.41,466.52 480.50,469.64C479.59,472.77 477.81,476.85 476.55,478.71C475.28,480.58 471.18,485.51 467.44,489.68C463.69,493.85 455.65,501.37 449.56,506.41C443.48,511.44 435.35,517.85 431.50,520.65C427.65,523.46 414.89,532.12 403.14,539.91C391.40,547.70 379.60,555.18 376.93,556.54C374.06,557.99 370.51,558.95 368.28,558.89zM647.62,557.95C646.46,557.92 643.25,556.98 640.50,555.88C637.75,554.77 635.14,553.51 634.69,553.07C634.25,552.64 635.45,548.51 637.35,543.89C639.25,539.28 642.15,531.67 643.79,527.00C645.43,522.33 650.69,508.82 655.48,497.00C660.27,485.18 667.35,468.07 671.21,459.00C675.07,449.93 682.06,434.85 686.74,425.50C691.42,416.15 698.18,403.32 701.76,397.00C705.34,390.68 710.66,381.90 713.57,377.50C716.48,373.10 720.20,367.93 721.83,366.00C723.47,364.07 725.10,362.79 725.45,363.13C725.81,363.48 726.08,370.57 726.06,378.88C726.04,387.19 725.56,398.15 725.00,403.25C724.44,408.34 723.29,416.32 722.44,421.00C721.60,425.68 719.54,434.68 717.88,441.00C716.21,447.32 713.26,456.77 711.32,462.00C709.38,467.23 704.54,478.02 700.56,486.00C696.59,493.98 690.69,504.77 687.45,510.00C684.22,515.23 677.51,524.90 672.54,531.50C667.58,538.10 660.42,546.76 656.63,550.75C652.17,555.45 649.00,557.98 647.62,557.95zM98.76,523.00C97.89,523.00 94.09,518.43 90.25,512.75C86.42,507.11 80.85,498.23 77.85,493.00C74.86,487.77 70.23,479.00 67.58,473.50C64.93,468.00 60.75,458.10 58.30,451.50C55.85,444.90 52.55,434.10 50.97,427.50C49.38,420.90 47.41,410.77 46.59,405.00C45.77,399.23 44.80,389.10 44.44,382.50C44.08,375.90 44.28,363.94 44.88,355.91C45.49,347.89 46.85,336.42 47.90,330.41C48.95,324.41 50.96,314.99 52.36,309.48C53.77,303.97 56.76,294.07 59.02,287.48C61.28,280.89 67.32,266.95 72.46,256.50C78.16,244.90 85.05,232.76 90.15,225.33C94.74,218.64 102.51,208.29 107.40,202.33C112.30,196.38 123.55,184.28 132.40,175.46C141.91,165.99 153.36,155.79 160.36,150.55C166.88,145.67 175.84,139.50 180.27,136.84C184.70,134.18 188.90,132.00 189.62,132.00C190.52,132.00 190.05,134.03 188.04,138.75C186.46,142.46 184.25,149.10 183.13,153.50C182.01,157.90 180.10,166.90 178.87,173.50C177.36,181.66 176.65,189.34 176.66,197.50C176.67,206.60 177.34,212.86 179.45,223.40C181.14,231.84 182.05,239.12 181.78,241.96C181.53,244.53 179.79,249.96 177.91,254.03C174.50,261.44 174.50,261.44 174.50,277.97C174.50,291.45 174.91,296.26 176.70,304.00C177.91,309.23 180.27,322.10 181.96,332.61C183.65,343.13 186.09,354.85 187.39,358.67C188.69,362.49 190.54,367.15 191.52,369.03C192.49,370.91 195.80,375.09 198.89,378.33C202.55,382.17 206.93,385.44 211.50,387.73C215.35,389.66 218.62,391.34 218.78,391.48C218.93,391.61 219.97,397.97 221.09,405.61C222.21,413.25 224.44,425.70 226.06,433.28C227.68,440.87 229.00,447.66 229.00,448.37C229.00,449.09 222.14,453.66 213.75,458.53C205.36,463.39 192.88,470.73 186.00,474.82C179.12,478.91 162.70,488.44 149.50,495.99C136.30,503.53 119.84,512.70 112.91,516.36C105.99,520.01 99.62,523.00 98.76,523.00zM354.68,445.87C344.13,445.81 333.70,445.44 331.50,445.07C329.30,444.70 326.38,443.80 325.00,443.07C323.62,442.34 321.04,440.66 319.25,439.32C317.46,437.99 316.00,436.53 316.00,436.07C316.00,435.62 317.24,435.00 318.75,434.69C320.26,434.38 322.39,433.46 323.49,432.65C325.41,431.23 325.32,431.04 320.74,426.77C318.13,424.34 316.00,421.88 316.00,421.29C316.00,420.65 319.65,421.38 324.86,423.06C329.74,424.63 336.60,426.40 340.11,427.00C343.63,427.60 353.59,428.36 362.25,428.69C378.00,429.30 378.00,429.30 377.96,432.40C377.95,434.10 377.32,436.60 376.58,437.93C375.37,440.11 375.46,440.55 377.37,442.11C379.50,443.84 379.50,443.84 376.68,444.92C374.98,445.58 366.30,445.95 354.68,445.87zM293.20,416.00C288.25,416.00 287.91,415.83 285.29,411.86C283.15,408.62 282.47,406.24 282.17,400.94C281.85,395.34 282.21,393.22 284.22,388.83C285.56,385.90 289.16,379.68 292.20,375.00C295.25,370.32 300.31,363.57 303.45,360.00C306.59,356.43 310.75,350.57 312.69,347.00C314.63,343.43 317.91,338.02 319.98,334.99C322.05,331.95 324.86,326.33 326.23,322.49C327.97,317.61 328.90,312.41 329.32,305.28C329.73,298.20 330.69,292.83 332.43,287.83C333.81,283.85 334.76,280.43 334.55,280.21C334.33,280.00 331.70,280.37 328.70,281.04C323.97,282.10 322.65,282.03 318.65,280.50C315.50,279.30 312.33,278.89 308.58,279.20C304.85,279.51 301.89,280.49 299.30,282.28C297.21,283.72 291.74,286.08 287.14,287.53C279.98,289.78 278.37,289.98 275.87,288.95C274.26,288.28 270.98,285.55 268.57,282.87C266.16,280.19 263.51,278.00 262.68,278.00C261.85,278.00 260.18,279.59 258.99,281.52C257.79,283.46 255.61,285.66 254.15,286.40C252.69,287.15 249.93,288.08 248.00,288.48C246.07,288.87 243.45,289.86 242.16,290.68C240.88,291.49 239.58,291.92 239.29,291.62C238.99,291.33 239.00,290.44 239.30,289.66C239.60,288.88 241.75,287.17 244.08,285.87C246.41,284.57 248.79,282.73 249.37,281.80C249.95,280.86 250.12,279.79 249.74,279.41C249.37,279.03 247.01,279.30 244.50,280.00C241.99,280.70 239.62,280.95 239.22,280.55C238.82,280.16 239.72,278.78 241.21,277.50C243.91,275.17 243.91,275.17 241.38,273.52C238.97,271.94 238.89,271.55 239.49,265.18C239.84,261.51 240.81,254.98 241.65,250.68C242.48,246.38 243.84,241.25 244.66,239.27C245.49,237.30 248.71,233.13 251.83,230.02C254.95,226.91 258.73,223.56 260.23,222.58C261.73,221.60 264.65,220.40 266.73,219.92C269.16,219.35 276.53,219.57 287.50,220.55C296.85,221.38 307.88,222.78 312.00,223.66C316.12,224.54 321.70,226.36 324.38,227.71C327.06,229.06 330.04,229.96 330.99,229.71C332.12,229.42 333.31,230.25 334.42,232.13C335.35,233.71 336.71,235.00 337.43,235.00C338.16,235.00 339.23,234.43 339.81,233.73C340.39,233.03 341.66,229.32 342.63,225.48C344.40,218.50 344.40,218.50 345.62,222.50C346.30,224.70 346.88,228.83 346.92,231.68C346.97,234.54 346.36,241.06 345.57,246.18C344.78,251.31 343.65,262.02 343.05,270.00C342.46,277.98 341.98,286.52 341.98,289.00C341.99,291.48 341.08,298.88 339.97,305.46C338.86,312.05 336.86,319.80 335.54,322.70C333.73,326.64 332.22,328.41 329.54,329.68C327.44,330.68 324.76,333.27 323.06,335.95C321.47,338.45 319.68,342.36 319.07,344.64C318.47,346.92 318.25,349.49 318.58,350.35C318.91,351.22 320.06,352.20 321.14,352.54C322.22,352.89 323.75,352.62 324.55,351.96C325.35,351.30 326.00,350.16 326.00,349.43C326.00,348.71 327.08,346.85 328.40,345.32C330.80,342.53 330.80,342.53 336.23,347.65C339.21,350.47 343.64,353.80 346.07,355.05C349.39,356.74 352.29,357.33 357.61,357.38C364.08,357.45 365.26,357.13 370.61,353.86C373.85,351.88 377.51,349.74 378.74,349.10C380.50,348.19 382.23,348.26 386.66,349.42C390.35,350.38 392.93,350.57 394.05,349.98C394.99,349.47 396.01,348.42 396.30,347.65C396.60,346.88 396.47,344.60 396.02,342.59C395.57,340.59 394.61,338.17 393.90,337.22C393.19,336.27 391.26,334.04 389.61,332.25C387.48,329.94 387.06,329.00 388.16,329.00C389.01,329.00 391.23,330.03 393.09,331.28C394.95,332.53 397.51,335.35 398.78,337.53C400.52,340.53 400.98,342.57 400.65,345.86C400.39,348.51 399.09,351.84 397.34,354.32C395.60,356.80 392.36,359.51 389.12,361.21C385.34,363.18 382.30,364.00 378.77,364.00C374.79,364.00 372.55,364.74 367.88,367.57C364.65,369.54 362.00,371.59 362.00,372.13C362.00,372.67 362.53,377.43 363.18,382.69C364.28,391.65 364.23,392.36 362.49,393.63C361.46,394.39 359.38,395.00 357.87,395.00C356.36,395.00 354.75,394.44 354.31,393.75C353.86,393.06 353.27,388.58 353.00,383.79C352.50,375.08 352.50,375.08 348.10,378.04C345.55,379.75 342.39,380.99 340.60,380.99C338.89,380.98 335.57,379.87 333.21,378.53C330.86,377.18 326.94,374.45 324.52,372.46C321.84,370.26 319.63,367.40 318.90,365.17C318.24,363.15 317.04,360.49 316.23,359.25C315.43,358.01 313.96,357.00 312.98,357.00C311.99,357.00 308.33,360.10 304.84,363.88C301.35,367.67 296.99,373.29 295.14,376.37C293.29,379.45 291.17,383.66 290.43,385.73C289.69,387.81 289.07,391.52 289.06,394.00C289.04,396.48 289.46,399.18 289.98,400.00C290.82,401.31 291.22,401.32 293.22,400.06C294.47,399.26 297.94,397.35 300.93,395.81C303.92,394.26 306.49,393.00 306.64,393.00C306.78,393.00 307.80,395.03 308.90,397.50C310.13,400.28 311.83,402.37 313.34,402.94C315.07,403.60 318.58,403.28 325.15,401.89C330.29,400.81 336.52,399.87 339.00,399.80C342.08,399.73 345.17,400.54 348.78,402.37C354.05,405.06 354.05,405.06 360.28,402.42C363.70,400.98 367.66,399.57 369.08,399.31C370.50,399.04 377.19,399.76 383.95,400.91C390.72,402.06 398.86,403.00 402.05,403.00C406.00,403.00 408.36,402.50 409.43,401.43C410.29,400.56 411.00,398.79 411.00,397.49C411.00,396.18 411.36,394.90 411.79,394.63C412.23,394.36 414.53,395.01 416.90,396.07C419.28,397.13 422.31,398.00 423.65,398.00C424.99,398.00 427.20,399.10 428.55,400.45C430.32,402.23 431.00,404.00 431.00,406.83C431.00,409.05 430.37,411.28 429.55,411.96C428.38,412.93 426.82,412.55 421.66,410.00C415.22,406.83 415.22,406.83 409.36,408.43C406.14,409.31 400.57,410.45 397.00,410.96C393.43,411.47 383.75,412.37 375.50,412.96C367.25,413.54 354.20,413.99 346.50,413.95C338.80,413.91 325.75,413.50 317.50,413.04C303.49,412.25 302.36,412.32 300.44,414.10C298.96,415.46 296.89,416.00 293.20,416.00zM224.44,367.66C221.72,367.88 218.67,367.55 217.66,366.92C216.64,366.30 214.96,363.93 213.93,361.65C212.89,359.37 212.03,356.18 212.02,354.58C212.00,351.65 212.00,351.65 214.31,353.83C215.59,355.02 217.59,356.00 218.76,356.00C219.93,356.00 221.16,355.54 221.51,354.99C221.85,354.43 223.00,350.83 224.07,347.00C225.13,343.16 226.00,339.61 226.00,339.11C226.00,338.61 224.68,337.74 223.08,337.18C221.47,336.62 219.61,335.14 218.94,333.89C218.27,332.64 217.67,328.89 217.61,325.56C217.55,322.23 217.88,316.69 218.35,313.25C219.09,307.82 218.99,307.00 217.58,307.00C216.70,307.00 215.09,308.45 214.02,310.21C212.94,311.98 211.40,316.37 210.60,319.96C209.61,324.37 209.40,327.81 209.96,330.50C210.42,332.70 211.12,335.96 211.52,337.75C211.99,339.84 211.87,341.00 211.18,341.00C210.59,341.00 209.40,339.99 208.52,338.75C207.64,337.51 205.09,330.65 202.84,323.50C200.58,316.35 197.96,308.93 197.00,307.00C196.04,305.07 193.36,298.24 191.05,291.80C188.74,285.37 186.77,278.07 186.68,275.59C186.56,272.52 187.04,270.53 188.17,269.41C189.29,268.28 190.66,267.95 192.39,268.38C193.80,268.74 196.79,270.93 199.04,273.26C201.29,275.59 204.28,279.61 205.69,282.19C207.10,284.77 208.92,287.14 209.74,287.45C210.90,287.90 211.08,287.47 210.57,285.43C210.01,283.19 210.19,282.92 211.88,283.46C212.95,283.80 214.08,283.68 214.39,283.18C214.69,282.69 213.80,279.99 212.41,277.19C211.01,274.39 206.36,268.32 202.07,263.70C196.52,257.72 194.09,254.30 193.62,251.79C193.26,249.86 193.46,245.97 194.06,243.14C194.67,240.31 195.55,238.00 196.03,238.00C196.50,238.00 197.02,239.88 197.19,242.17C197.36,244.47 198.04,246.52 198.69,246.74C199.35,246.95 200.67,245.64 201.64,243.81C203.40,240.50 203.40,240.50 204.69,247.39C205.39,251.19 206.77,255.89 207.74,257.84C208.71,259.79 210.02,261.55 210.67,261.75C211.31,261.95 211.99,261.30 212.18,260.31C212.38,259.31 212.19,254.68 211.78,250.00C211.30,244.57 211.42,240.31 212.11,238.21C212.70,236.40 212.87,234.15 212.49,233.21C212.11,232.27 211.45,229.03 211.04,226.00C210.63,222.97 209.45,216.59 208.43,211.81C206.83,204.31 206.73,202.17 207.75,196.25C208.59,191.36 208.63,188.24 207.89,185.44C207.33,183.27 206.38,179.96 205.80,178.08C204.84,174.96 205.15,173.89 209.32,165.83C211.87,160.90 213.36,157.00 212.69,157.01C212.04,157.02 209.07,158.15 206.10,159.53C203.14,160.91 200.47,161.80 200.18,161.51C199.88,161.22 200.42,159.35 201.36,157.36C202.31,155.38 202.87,153.53 202.60,153.27C202.33,153.00 200.74,153.76 199.06,154.96C196.00,157.14 196.00,157.14 196.00,154.11C196.00,152.44 196.94,148.69 198.08,145.79C199.23,142.88 203.54,133.75 207.66,125.50C211.79,117.25 218.60,105.33 222.79,99.00C227.51,91.89 233.70,84.25 239.00,79.00C243.72,74.33 251.61,67.76 256.54,64.42C261.47,61.07 267.98,56.94 271.00,55.24C274.02,53.54 279.95,50.99 284.18,49.57C290.24,47.54 293.71,47.02 300.68,47.08C305.53,47.12 311.30,47.73 313.50,48.43C316.06,49.25 316.96,49.92 316.00,50.28C315.18,50.59 310.28,52.01 305.11,53.45C299.95,54.88 295.00,56.52 294.11,57.09C292.87,57.89 293.17,57.98 295.39,57.51C296.98,57.17 300.69,57.19 303.64,57.56C306.59,57.93 309.00,58.59 309.00,59.04C309.00,59.48 307.39,60.38 305.41,61.03C303.44,61.68 295.99,64.85 288.85,68.07C281.71,71.29 271.90,76.20 267.05,78.97C262.20,81.75 257.67,84.69 256.99,85.51C256.31,86.33 256.00,87.00 256.29,87.00C256.59,87.00 258.96,86.09 261.55,84.98C264.14,83.87 271.83,81.83 278.63,80.45C289.27,78.30 293.19,77.99 306.67,78.22C317.10,78.41 322.46,78.87 322.71,79.62C322.91,80.23 320.47,81.78 317.29,83.06C314.11,84.33 309.48,86.63 307.00,88.17C304.52,89.71 303.25,90.97 304.17,90.98C305.09,90.99 311.39,89.37 318.17,87.37C324.95,85.37 333.65,82.85 337.50,81.77C341.35,80.68 344.87,79.45 345.33,79.02C345.78,78.60 344.65,77.72 342.83,77.07C340.05,76.09 339.77,75.74 341.15,74.96C342.05,74.44 346.02,73.34 349.96,72.51C353.91,71.68 361.49,71.01 366.82,71.02C372.14,71.04 378.29,71.46 380.47,71.97C382.66,72.48 384.57,72.77 384.72,72.61C384.87,72.46 381.96,70.81 378.25,68.94C373.65,66.62 372.10,65.42 373.37,65.17C374.40,64.97 379.35,65.30 384.37,65.89C389.39,66.49 397.08,68.09 401.46,69.45C405.84,70.80 409.58,71.76 409.76,71.57C409.95,71.38 407.50,69.61 404.30,67.64C400.30,65.17 399.15,64.05 400.57,64.03C401.72,64.01 405.77,65.08 409.57,66.40C413.38,67.72 418.24,69.55 420.36,70.46C422.48,71.37 424.47,71.86 424.79,71.55C425.10,71.24 424.07,69.64 422.50,68.00C420.93,66.36 419.89,64.78 420.18,64.49C420.47,64.19 424.42,65.54 428.94,67.47C433.50,69.43 436.98,70.45 436.76,69.77C436.53,69.09 433.98,66.96 431.10,65.02C426.82,62.15 426.23,61.44 427.93,61.18C429.07,61.00 432.59,61.63 435.75,62.56C438.91,63.50 442.96,64.61 444.75,65.03C447.14,65.59 448.00,65.45 448.00,64.49C448.00,63.77 444.90,61.23 441.11,58.84C437.32,56.45 433.39,53.96 432.36,53.31C430.64,52.21 430.69,52.12 433.00,52.08C434.38,52.06 437.47,52.50 439.88,53.06C442.29,53.61 444.46,53.88 444.69,53.64C444.93,53.40 441.79,51.37 437.71,49.11C433.63,46.86 427.19,43.85 423.41,42.43C419.62,41.00 410.00,38.26 402.01,36.32C394.03,34.39 383.68,32.57 379.00,32.28C374.32,32.00 365.20,32.25 358.72,32.85C352.25,33.44 346.23,34.33 345.35,34.83C344.46,35.32 344.14,35.95 344.62,36.23C345.10,36.51 347.86,37.50 350.75,38.45C353.64,39.39 356.00,40.53 356.00,40.97C356.00,41.42 354.31,41.99 352.25,42.25C350.19,42.51 340.18,42.33 330.00,41.86C319.82,41.38 310.40,40.74 309.05,40.43C307.10,39.98 306.90,39.67 308.05,38.93C308.85,38.42 314.23,36.46 320.00,34.58C325.77,32.70 334.32,30.34 339.00,29.35C345.59,27.95 351.88,27.55 367.00,27.58C380.50,27.60 389.43,28.13 396.01,29.27C401.24,30.18 409.57,32.10 414.51,33.53C419.46,34.95 427.75,38.14 432.95,40.59C438.15,43.05 444.68,46.79 447.45,48.89C450.23,50.99 454.90,55.19 457.83,58.22C463.17,63.73 463.17,63.73 471.14,64.27C476.76,64.66 480.65,65.56 484.31,67.33C487.16,68.72 491.71,70.65 494.40,71.62C497.10,72.59 501.83,75.25 504.90,77.52C507.98,79.80 513.16,84.53 516.41,88.06C519.66,91.58 523.76,96.72 525.52,99.48C527.29,102.24 530.63,108.27 532.95,112.89C535.26,117.50 538.90,126.50 541.03,132.89C543.16,139.27 546.70,151.52 548.91,160.09C551.51,170.22 553.36,180.38 554.20,189.09C554.92,196.47 555.49,208.12 555.49,215.00C555.48,221.88 555.12,228.80 554.68,230.38C553.93,233.14 553.72,233.23 549.37,232.64C546.87,232.30 543.55,231.00 541.99,229.76C540.43,228.52 536.82,224.57 533.97,221.00C531.12,217.43 527.94,212.83 526.90,210.79C525.85,208.75 525.00,206.60 525.00,206.02C525.00,205.43 526.77,205.86 528.96,206.98C531.14,208.09 533.88,209.00 535.05,209.00C536.91,209.00 536.61,208.36 532.68,203.99C530.21,201.24 527.47,196.89 526.59,194.32C525.72,191.75 525.00,189.27 525.00,188.82C525.00,188.37 527.21,189.24 529.92,190.75C532.63,192.26 535.16,193.18 535.54,192.79C535.93,192.40 534.50,190.10 532.37,187.68C530.24,185.25 527.46,181.41 526.19,179.13C524.91,176.86 524.31,175.00 524.85,175.00C525.39,175.00 527.96,175.91 530.56,177.03C533.16,178.14 535.54,178.80 535.85,178.49C536.16,178.18 533.84,175.47 530.70,172.48C527.56,169.49 524.10,165.57 523.00,163.77C521.90,161.97 521.01,159.94 521.00,159.25C521.00,158.56 521.67,158.00 522.50,158.00C523.33,158.00 524.00,157.76 524.00,157.47C524.00,157.17 522.87,154.70 521.48,151.97C519.77,148.59 519.37,147.00 520.24,147.00C520.94,147.00 523.63,148.13 526.21,149.50C528.80,150.88 531.38,152.00 531.95,152.00C532.53,152.00 533.00,151.29 533.00,150.43C533.00,149.56 530.49,146.22 527.42,143.01C523.75,139.15 521.96,136.49 522.17,135.18C522.39,133.87 520.50,131.12 516.56,126.98C510.96,121.11 510.73,120.67 512.50,119.38C513.54,118.62 515.18,118.00 516.14,118.00C517.11,118.00 519.05,118.52 520.46,119.16C521.86,119.80 523.30,120.04 523.65,119.69C524.00,119.34 523.66,118.29 522.89,117.35C522.13,116.42 518.35,113.64 514.50,111.18C510.65,108.72 506.68,105.99 505.68,105.13C503.95,103.64 504.03,103.50 507.18,102.44C509.00,101.82 510.50,100.94 510.50,100.48C510.50,100.01 508.51,98.47 506.08,97.04C503.64,95.62 501.49,93.96 501.29,93.36C501.08,92.75 501.92,91.99 503.15,91.67C504.37,91.35 507.31,91.36 509.69,91.68C512.16,92.02 514.00,91.87 514.00,91.32C514.00,90.80 512.76,89.21 511.25,87.80C509.74,86.38 504.00,82.17 498.50,78.46C493.00,74.74 488.25,71.32 487.95,70.85C487.64,70.39 485.17,69.75 482.45,69.42C479.73,69.09 475.37,68.15 472.77,67.34C470.17,66.52 467.58,66.14 467.02,66.49C466.46,66.83 466.00,67.92 466.00,68.90C466.00,69.89 466.95,71.55 468.11,72.60C469.28,73.64 470.62,75.51 471.09,76.75C471.56,77.99 472.63,79.00 473.45,79.00C474.28,79.00 477.44,80.22 480.48,81.71C483.52,83.20 486.00,84.70 486.00,85.05C486.00,85.39 484.88,86.19 483.50,86.82C482.12,87.44 481.00,88.44 481.00,89.03C481.00,89.63 483.05,91.02 485.55,92.12C489.16,93.72 489.97,94.52 489.50,96.01C489.09,97.29 490.02,99.13 492.45,101.81C494.40,103.97 496.00,106.05 496.00,106.43C496.00,106.80 497.80,109.76 500.00,113.00C502.20,116.24 504.00,119.36 504.00,119.95C504.00,120.53 503.55,121.00 503.00,121.00C502.45,121.00 502.00,121.42 502.00,121.94C502.00,122.46 503.07,124.13 504.38,125.65C506.20,127.77 506.52,128.80 505.73,130.07C504.92,131.36 505.49,132.76 508.33,136.48C510.33,139.10 511.76,141.58 511.51,141.99C511.25,142.40 509.91,142.51 508.52,142.25C506.99,141.96 506.00,142.23 506.00,142.94C506.00,143.58 506.87,145.77 507.94,147.80C509.00,149.84 510.52,154.43 511.30,158.00C512.54,163.64 512.54,164.72 511.30,166.15C510.04,167.60 510.11,168.29 511.80,171.65C512.87,173.77 514.05,176.51 514.44,177.74C515.08,179.81 514.89,179.93 511.92,179.33C508.72,178.69 508.72,178.69 509.56,182.60C510.02,184.74 510.34,187.96 510.27,189.75C510.18,192.03 510.72,193.32 512.07,194.04C513.49,194.80 514.00,196.14 514.00,199.12C514.00,202.72 513.66,203.30 510.95,204.33C508.52,205.24 508.03,205.89 508.55,207.49C508.91,208.60 509.81,214.68 510.55,221.00C511.28,227.32 511.91,235.33 511.94,238.78C511.97,242.24 511.35,246.62 510.55,248.53C509.59,250.84 508.44,252.00 507.11,252.00C505.49,252.00 505.01,251.11 504.49,247.25C504.15,244.64 503.22,238.91 502.44,234.51C501.66,230.12 499.97,224.50 498.68,222.01C497.39,219.53 494.68,214.43 492.67,210.68C489.63,205.03 489.00,202.84 489.00,197.96C489.00,193.13 489.27,192.17 490.50,192.64C491.73,193.11 492.00,192.12 492.00,187.04C492.00,181.50 492.19,180.93 493.84,181.45C495.50,181.97 495.88,180.76 497.67,169.27C499.29,158.89 499.52,154.34 498.90,145.00C498.45,138.20 497.29,130.78 496.06,126.85C494.92,123.19 492.16,117.47 489.92,114.12C487.69,110.78 480.51,102.76 473.97,96.31C467.43,89.85 461.95,83.66 461.79,82.54C461.55,80.82 460.65,80.45 456.13,80.19C451.65,79.94 450.53,80.22 449.33,81.94C448.53,83.07 446.86,84.00 445.60,84.00C444.34,84.00 442.32,84.85 441.12,85.90C439.57,87.24 436.60,88.00 431.05,88.50C426.72,88.88 422.21,88.88 421.02,88.51C419.64,88.07 418.23,88.39 417.13,89.38C416.18,90.24 413.40,91.68 410.95,92.57C407.38,93.87 402.34,94.19 385.50,94.20C367.02,94.21 364.92,94.37 368.00,95.53C369.93,96.26 372.54,96.88 373.81,96.92C375.08,96.97 375.84,97.45 375.50,98.00C375.16,98.55 373.77,99.00 372.40,99.00C371.04,99.00 363.30,100.37 355.21,102.04C347.12,103.70 332.40,106.42 322.50,108.07C312.60,109.71 299.32,111.33 293.00,111.67C285.97,112.04 280.33,112.86 278.50,113.77C276.85,114.59 273.25,116.87 270.50,118.84C267.75,120.82 262.46,125.33 258.75,128.88C252.46,134.89 251.83,135.25 249.46,134.16C248.05,133.52 246.27,133.00 245.49,133.00C244.71,133.00 241.11,135.77 237.48,139.17C233.86,142.56 229.79,147.21 228.45,149.50C227.11,151.79 225.73,155.71 225.38,158.22C225.04,160.72 225.51,169.46 226.43,177.64C227.35,185.81 228.53,195.78 229.05,199.79C229.57,203.80 230.00,213.93 230.00,222.29C229.99,230.96 229.37,241.16 228.55,246.00C227.75,250.68 226.60,263.95 225.98,275.50C225.03,293.16 225.10,299.21 226.42,313.56C227.28,322.94 228.86,334.87 229.92,340.06C230.99,345.25 232.16,352.44 232.52,356.03C233.09,361.58 232.90,362.90 231.28,364.90C229.86,366.66 228.11,367.36 224.44,367.66zM524.50,365.29C522.85,365.58 520.15,365.48 518.50,365.08C516.85,364.68 514.50,363.81 513.27,363.15C512.05,362.49 510.56,361.04 509.96,359.92C509.36,358.80 509.16,356.56 509.51,354.94C509.87,353.32 510.57,352.00 511.07,352.00C511.57,352.00 514.02,353.56 516.51,355.46C519.01,357.36 522.50,359.19 524.28,359.53C526.06,359.86 528.81,359.64 530.39,359.04C531.97,358.44 534.66,356.96 536.38,355.74C539.50,353.53 539.50,353.53 537.58,356.52C536.52,358.16 534.94,360.07 534.08,360.77C533.21,361.47 531.38,362.65 530.00,363.40C528.62,364.15 526.15,365.00 524.50,365.29zM544.55,339.23C543.70,340.45 543.00,340.89 543.00,340.22C543.00,339.54 544.80,334.66 547.01,329.36C549.21,324.07 551.69,317.14 552.51,313.97C553.33,310.80 554.00,305.58 553.99,302.36C553.99,299.14 553.09,292.76 551.99,288.18C550.90,283.61 549.53,279.00 548.96,277.93C548.40,276.87 547.51,276.00 547.00,276.00C546.49,276.00 545.27,276.82 544.29,277.83C543.31,278.83 541.02,280.24 539.21,280.96C537.40,281.68 535.49,283.08 534.97,284.06C534.44,285.05 534.27,286.54 534.59,287.38C534.92,288.22 536.74,289.83 538.64,290.95C540.60,292.10 542.73,294.50 543.55,296.46C544.35,298.37 545.00,301.31 545.00,303.00C545.00,304.69 544.38,307.55 543.63,309.35C542.87,311.16 540.90,314.19 539.26,316.07C537.61,317.96 535.35,321.30 534.23,323.50C533.11,325.70 530.99,328.54 529.52,329.81C528.04,331.09 527.07,332.74 527.36,333.49C527.65,334.24 527.28,335.35 526.55,335.96C525.55,336.79 524.81,336.67 523.61,335.46C522.72,334.58 522.00,333.03 522.00,332.03C522.00,331.02 523.63,327.79 525.63,324.85C527.63,321.91 529.92,317.95 530.73,316.05C531.66,313.85 531.97,311.20 531.57,308.72C531.23,306.58 529.90,302.73 528.61,300.17C527.33,297.60 526.50,294.82 526.78,294.00C527.05,293.18 528.71,290.48 530.46,288.00C532.22,285.52 534.82,281.45 536.25,278.94C537.69,276.44 540.91,272.50 543.41,270.19C545.92,267.88 549.94,265.03 552.36,263.86C555.18,262.48 557.65,261.95 559.26,262.35C560.84,262.75 562.41,264.34 563.51,266.66C564.91,269.62 565.15,272.03 564.73,278.92C564.28,286.05 563.08,290.75 557.58,306.76C553.94,317.36 549.87,328.50 548.53,331.52C547.20,334.54 545.41,338.01 544.55,339.23zM507.25,314.12C505.49,314.76 505.00,314.57 505.00,313.27C505.00,312.36 506.17,309.92 507.60,307.86C510.01,304.38 510.10,303.84 508.93,300.31C508.23,298.21 507.59,294.25 507.49,291.50C507.39,288.75 506.78,282.27 506.13,277.11C505.48,271.94 505.15,267.51 505.40,267.27C505.65,267.02 506.63,268.32 507.59,270.16C508.54,272.00 509.50,272.97 509.72,272.32C509.94,271.67 509.19,268.11 508.05,264.42C506.90,260.72 506.19,257.48 506.46,257.21C506.73,256.94 507.83,257.79 508.91,259.11C510.86,261.50 510.86,261.50 512.56,257.50C513.49,255.30 514.60,250.63 515.04,247.13C515.48,243.63 516.28,240.32 516.82,239.78C517.48,239.12 518.17,240.61 518.85,244.14C519.42,247.09 520.19,252.76 520.55,256.75C520.91,260.74 521.55,264.22 521.97,264.48C522.39,264.74 523.31,260.02 524.00,253.99C524.70,247.96 525.01,241.44 524.70,239.51C524.38,237.58 524.30,236.00 524.52,236.00C524.74,236.00 526.08,237.98 527.50,240.40C529.84,244.40 530.01,245.42 529.38,251.56C528.92,256.12 529.03,258.10 529.73,257.67C530.30,257.32 532.01,254.09 533.54,250.50C536.31,243.98 536.31,243.98 538.14,246.99C539.15,248.65 540.38,250.00 540.88,250.00C541.38,250.00 542.06,249.29 542.39,248.42C542.73,247.55 543.00,246.05 543.00,245.09C543.00,244.13 544.01,242.44 545.25,241.32C546.49,240.21 548.27,239.03 549.22,238.69C550.16,238.36 551.18,238.48 551.48,238.96C551.77,239.44 551.53,242.09 550.94,244.85C550.06,248.96 549.04,250.56 545.31,253.68C542.80,255.78 536.00,262.22 530.19,267.99C519.64,278.48 519.64,278.48 517.42,291.86C515.60,302.85 514.70,305.97 512.35,309.27C510.78,311.49 508.49,313.67 507.25,314.12zM267.00,297.95C266.18,297.95 264.71,297.48 263.75,296.92C262.79,296.36 262.00,295.23 262.00,294.40C262.00,293.22 262.79,293.05 265.75,293.58C267.81,293.94 269.95,294.66 270.49,295.16C271.14,295.76 270.96,296.41 269.99,297.03C269.17,297.55 267.82,297.96 267.00,297.95zM465.00,283.97C464.18,283.97 460.80,282.41 457.50,280.49C452.56,277.62 450.84,277.11 447.75,277.59C445.69,277.91 442.16,277.86 439.91,277.49C435.82,276.79 435.82,276.79 438.41,274.09C439.85,272.59 441.00,270.23 441.00,268.77C441.00,267.32 440.29,265.44 439.43,264.57C438.56,263.71 437.31,263.00 436.64,263.00C435.98,263.00 434.70,264.24 433.80,265.75C432.91,267.26 431.07,269.53 429.73,270.79C428.39,272.05 425.74,273.33 423.85,273.64C421.79,273.97 418.93,273.58 416.72,272.66C414.68,271.81 412.13,269.65 411.00,267.81C409.88,265.99 409.02,263.60 409.09,262.50C409.16,261.40 409.17,259.89 409.11,259.13C409.02,258.06 408.41,258.14 406.25,259.51C404.74,260.47 402.72,262.21 401.77,263.38C400.82,264.54 400.03,266.67 400.02,268.11C400.00,270.50 399.57,270.78 394.75,271.38C391.86,271.75 388.39,272.15 387.03,272.27C385.32,272.43 384.45,271.93 384.19,270.66C383.99,269.65 384.84,267.74 386.08,266.41C387.42,264.98 387.83,264.00 387.08,264.00C386.38,264.00 384.47,264.79 382.83,265.75C381.05,266.80 379.63,268.62 379.29,270.30C378.80,272.74 378.33,273.07 375.61,272.80C372.50,272.50 372.50,272.50 371.94,263.50C371.48,255.95 370.87,253.53 368.21,248.50C366.47,245.20 364.34,239.80 363.48,236.50C362.51,232.73 362.16,228.76 362.55,225.83C362.89,223.26 363.75,220.36 364.46,219.38C365.60,217.83 365.85,218.27 366.49,223.05C366.89,226.05 367.83,229.97 368.56,231.76C369.31,233.58 371.02,235.44 372.44,235.98C373.84,236.51 375.61,236.70 376.37,236.41C377.14,236.12 379.15,234.15 380.84,232.05C382.53,229.94 385.85,227.32 388.21,226.21C391.63,224.61 395.53,224.08 407.50,223.57C415.75,223.22 425.41,222.47 428.96,221.91C432.51,221.35 437.08,221.18 439.11,221.52C441.14,221.86 444.29,223.24 446.10,224.57C447.91,225.91 449.57,227.00 449.80,227.00C450.03,227.00 449.95,226.32 449.64,225.50C449.32,224.68 449.31,224.00 449.60,224.00C449.90,224.00 452.07,225.33 454.44,226.96C456.81,228.59 460.84,232.25 463.40,235.10C465.96,237.95 469.62,243.53 471.53,247.50C473.46,251.51 475.00,256.27 475.00,258.22C475.00,261.21 474.40,262.13 471.02,264.37C468.83,265.82 466.62,267.00 466.11,267.00C465.60,267.00 463.41,264.41 461.26,261.25C459.10,258.09 455.57,254.29 453.42,252.82C451.26,251.34 446.57,249.16 443.00,247.96C438.56,246.47 432.98,245.61 425.39,245.26C417.96,244.91 414.06,245.09 413.61,245.82C413.20,246.49 414.37,247.12 416.72,247.48C418.80,247.80 422.98,248.54 426.00,249.14C429.02,249.73 434.97,251.54 439.20,253.16C444.38,255.14 448.61,257.64 452.12,260.80C454.99,263.38 458.90,267.97 460.80,270.99C462.71,274.02 465.43,277.76 466.86,279.30C469.05,281.65 469.23,282.24 467.98,283.03C467.17,283.55 465.82,283.97 465.00,283.97zM423.50,280.85C421.30,280.78 418.48,280.53 417.24,280.29C415.99,280.05 415.23,279.44 415.54,278.93C415.86,278.42 419.80,278.01 424.31,278.02C428.81,278.02 433.10,278.41 433.83,278.87C434.73,279.44 433.93,279.92 431.33,280.35C429.22,280.69 425.70,280.92 423.50,280.85zM291.95,278.93C294.39,278.97 300.24,278.50 304.95,277.90C309.65,277.29 314.26,276.41 315.19,275.93C316.11,275.45 319.83,275.34 323.44,275.68C327.09,276.02 330.00,275.89 329.99,275.39C329.98,274.90 327.71,272.93 324.94,271.00C322.17,269.07 319.37,266.88 318.70,266.13C318.04,265.37 316.04,263.19 314.26,261.29C312.48,259.38 310.46,258.02 309.76,258.25C309.06,258.49 308.64,259.82 308.81,261.27C308.98,262.69 308.46,265.13 307.66,266.68C306.85,268.23 305.05,270.56 303.66,271.87C302.09,273.33 299.45,274.42 296.73,274.73C293.76,275.06 291.29,274.68 289.12,273.56C287.36,272.65 285.03,270.46 283.96,268.70C282.89,266.94 282.01,264.49 282.00,263.25C282.00,262.01 281.56,261.00 281.02,261.00C280.49,261.00 279.31,262.12 278.42,263.48C277.53,264.84 276.37,267.84 275.86,270.14C275.34,272.44 275.28,274.68 275.72,275.12C276.16,275.56 278.99,276.58 282.01,277.39C285.03,278.20 289.50,278.90 291.95,278.93zM267.99,256.51C270.73,254.66 275.47,252.22 278.52,251.08C281.58,249.93 285.16,249.00 286.48,249.00C287.80,249.00 289.16,248.55 289.50,248.00C289.88,247.39 288.24,247.00 285.24,247.00C282.55,247.00 278.27,247.71 275.71,248.58C273.16,249.45 269.26,251.93 267.04,254.08C264.82,256.23 263.00,258.42 263.00,258.93C263.00,259.44 265.24,258.35 267.99,256.51zM536.20,238.00C535.75,238.00 534.00,236.54 532.29,234.75C530.58,232.96 527.82,228.46 526.16,224.75C524.49,221.04 523.47,218.00 523.90,218.00C524.32,218.00 526.08,219.76 527.80,221.90C529.52,224.05 532.30,228.12 533.97,230.95C535.64,233.77 537.00,236.52 537.00,237.04C537.00,237.57 536.64,238.00 536.20,238.00zM201.05,234.00C200.66,234.00 200.03,233.70 199.67,233.33C199.30,232.97 199.00,231.82 199.00,230.79C199.00,229.76 197.26,227.22 195.14,225.14C192.33,222.38 190.94,219.92 190.01,216.04C189.24,212.82 188.96,208.02 189.31,203.88C189.62,200.11 190.30,196.28 190.82,195.35C191.66,193.86 191.84,193.92 192.46,195.88C193.00,197.59 193.65,197.93 195.33,197.40C196.52,197.03 198.06,196.51 198.75,196.26C199.65,195.92 200.00,197.21 200.00,200.81C200.00,203.58 199.29,208.61 198.42,212.01C197.55,215.40 197.05,218.38 197.30,218.64C197.56,218.89 198.25,217.73 198.83,216.05C199.42,214.37 200.32,213.00 200.83,213.00C201.35,213.00 202.04,214.01 202.37,215.25C202.70,216.49 202.97,220.20 202.97,223.50C202.97,226.80 202.70,230.51 202.37,231.75C202.04,232.99 201.44,234.00 201.05,234.00zM245.59,231.00C245.39,231.00 244.96,223.46 244.64,214.25C244.31,205.04 243.76,192.06 243.40,185.41C242.83,174.48 242.97,172.86 244.86,168.58C246.01,165.97 248.37,162.06 250.09,159.89C251.81,157.72 254.49,155.28 256.06,154.47C257.62,153.66 260.09,153.00 261.55,153.00C264.20,153.00 264.20,153.00 262.04,156.25C260.86,158.04 259.16,160.96 258.27,162.74C257.37,164.52 256.94,166.27 257.30,166.63C257.66,167.00 260.70,166.06 264.05,164.56C268.93,162.37 272.39,161.67 281.33,161.06C287.47,160.64 295.20,160.63 298.50,161.04C301.80,161.45 305.74,162.10 307.25,162.50C308.76,162.89 310.00,163.57 310.00,164.00C310.00,164.43 306.17,165.49 301.50,166.36C296.82,167.23 286.37,170.06 278.28,172.66C266.97,176.28 262.75,178.12 260.03,180.61C258.09,182.39 256.81,184.14 257.18,184.51C257.55,184.88 264.30,184.45 272.17,183.56C280.05,182.66 291.45,181.86 297.50,181.78C303.74,181.70 310.99,182.22 314.25,182.98C317.41,183.71 320.00,184.68 320.00,185.11C320.00,185.55 318.54,186.12 316.75,186.37C314.96,186.62 308.56,187.32 302.52,187.91C293.44,188.81 290.30,189.59 284.29,192.44C280.30,194.34 273.54,196.86 269.27,198.06C264.99,199.25 260.68,200.65 259.68,201.18C258.68,201.71 256.55,204.21 254.95,206.74C252.74,210.23 252.30,211.66 253.14,212.67C254.05,213.77 254.83,213.65 257.49,212.00C259.28,210.90 261.33,210.00 262.05,210.00C262.77,210.00 261.52,211.58 259.27,213.50C257.02,215.43 253.10,220.15 250.57,224.00C248.03,227.85 245.79,231.00 245.59,231.00zM191.15,187.40C190.67,187.70 189.99,187.66 189.64,187.31C189.29,186.95 189.02,184.60 189.04,182.08C189.07,179.56 189.86,175.29 190.79,172.58C191.73,169.88 193.28,167.19 194.22,166.61C195.47,165.84 196.28,165.88 197.14,166.74C198.06,167.66 198.04,169.23 197.05,173.72C196.34,176.90 194.92,181.16 193.90,183.18C192.87,185.21 191.63,187.11 191.15,187.40zM327.00,65.42C322.81,65.96 322.64,65.89 324.48,64.47C325.57,63.63 328.72,62.26 331.48,61.44C334.24,60.61 339.03,59.67 342.11,59.34C345.59,58.97 347.97,59.14 348.37,59.79C348.74,60.39 347.61,61.28 345.76,61.85C343.97,62.41 340.02,63.31 337.00,63.86C333.98,64.40 329.48,65.11 327.00,65.42zM411.50,59.84C410.40,59.78 406.23,59.36 402.24,58.90C398.25,58.43 391.72,57.03 387.74,55.78C380.50,53.50 380.50,53.50 387.99,53.20C392.59,53.02 398.11,53.55 402.27,54.57C406.01,55.48 410.06,57.06 411.28,58.08C413.40,59.85 413.41,59.93 411.50,59.84zM416.69,49.95C416.04,49.92 408.72,47.75 400.44,45.13C392.15,42.50 384.79,39.99 384.08,39.55C383.03,38.90 383.04,38.59 384.14,37.89C384.89,37.42 387.12,37.02 389.09,37.02C391.06,37.01 396.09,37.87 400.26,38.94C404.43,40.00 409.63,41.79 411.81,42.91C414.00,44.02 416.52,45.66 417.40,46.55C418.29,47.44 418.76,48.57 418.45,49.08C418.14,49.59 417.35,49.98 416.69,49.95z" />

</svg>
