<svg class="svg-icon" style="width: 1em; height: 1em;vertical-align: middle;fill: currentColor;overflow: hidden;" viewBox="0 0 1024 1024" version="1.1" xmlns="http://www.w3.org/2000/svg"><path d="M896 213.333333 584.533333 213.333333l87.466667-87.466667C676.266667 128 678.4 128 682.666667 128c23.466667 0 42.666667-19.2 42.666667-42.666667s-19.2-42.666667-42.666667-42.666667-42.666667 19.2-42.666667 42.666667c0 4.266667 0 6.4 2.133333 10.666667L524.8 213.333333l-25.6 0-117.333333-117.333333C384 91.733333 384 89.6 384 85.333333c0-23.466667-19.2-42.666667-42.666667-42.666667s-42.666667 19.2-42.666667 42.666667 19.2 42.666667 42.666667 42.666667c4.266667 0 6.4 0 10.666667-2.133333l87.466667 87.466667L128 213.333333c-46.933333 0-85.333333 38.4-85.333333 85.333333l0 512c0 46.933333 38.4 85.333333 85.333333 85.333333l85.333333 0 0 64c0 12.8 8.533333 21.333333 21.333333 21.333333 12.8 0 21.333333-8.533333 21.333333-21.333333l0-21.333333 512 0 0 21.333333c0 12.8 8.533333 21.333333 21.333333 21.333333 12.8 0 21.333333-8.533333 21.333333-21.333333l0-64 85.333333 0c46.933333 0 85.333333-38.4 85.333333-85.333333L981.333333 298.666667C981.333333 251.733333 942.933333 213.333333 896 213.333333zM938.666667 810.666667c0 23.466667-19.2 42.666667-42.666667 42.666667L128 853.333333c-23.466667 0-42.666667-19.2-42.666667-42.666667L85.333333 298.666667c0-23.466667 19.2-42.666667 42.666667-42.666667l768 0c23.466667 0 42.666667 19.2 42.666667 42.666667L938.666667 810.666667z"  /></svg>